HIERARCHY
ROOT reference
{
	OFFSET 0.000000 0.000000 0.000000
	CHANNELS 6 Xposition Yposition Zposition Xrotation Yrotation Zrotation
	JOINT root
	{
		OFFSET 0.000000 89.713997 0.000000
		CHANNELS 3 Xrotation Yrotation Zrotation
		JOINT Hips
		{
			OFFSET 0.000000 0.000000 0.000000
			CHANNELS 3 Xrotation Yrotation Zrotation
			JOINT Spine
			{
				OFFSET -0.014789 -0.106537 0.015203
				CHANNELS 3 Xrotation Yrotation Zrotation
				JOINT Spine1
				{
					OFFSET 5.113210 17.402596 -3.936841
					CHANNELS 3 Xrotation Yrotation Zrotation
					JOINT Spine2
					{
						OFFSET 6.575050 16.906998 -3.936780
						CHANNELS 3 Xrotation Yrotation Zrotation
						JOINT Neck
						{
							OFFSET 9.379800 14.861298 -5.972203
							CHANNELS 3 Xrotation Yrotation Zrotation
							JOINT Head
							{
								OFFSET 7.165619 8.206940 -3.780392
								CHANNELS 3 Xrotation Yrotation Zrotation
								End Site
								{
									OFFSET 0.000000 0.100006 0.000000
								}
							}
						}
						JOINT RightShoulder
						{
							OFFSET 11.871703 14.332397 -3.369633
							CHANNELS 3 Xrotation Yrotation Zrotation
							JOINT RightArm
							{
								OFFSET 11.705299 -4.115265 10.230197
								CHANNELS 3 Xrotation Yrotation Zrotation
								JOINT RightForeArm
								{
									OFFSET 27.249599 -10.985001 -1.204576
									CHANNELS 3 Xrotation Yrotation Zrotation
									JOINT RightHand
									{
										OFFSET 21.957203 -1.528481 -11.702305
										CHANNELS 3 Xrotation Yrotation Zrotation
										End Site
										{
											OFFSET 0.000000 0.099998 0.000000
										}
									}
								}
							}
						}
						JOINT LeftShoulder
						{
							OFFSET 6.898665 15.377304 -8.582352
							CHANNELS 3 Xrotation Yrotation Zrotation
							JOINT LeftArm
							{
								OFFSET -11.682000 1.679230 -10.923195
								CHANNELS 3 Xrotation Yrotation Zrotation
								JOINT LeftForeArm
								{
									OFFSET -24.703499 -15.933899 0.717098
									CHANNELS 3 Xrotation Yrotation Zrotation
									JOINT LeftHand
									{
										OFFSET 14.171397 -19.199799 -7.206953
										CHANNELS 3 Xrotation Yrotation Zrotation
										End Site
										{
											OFFSET 0.000000 0.099998 0.000000
										}
									}
								}
							}
						}
					}
				}
			}
			JOINT RightUpLeg
			{
				OFFSET 6.058500 0.243271 7.388800
				CHANNELS 3 Xrotation Yrotation Zrotation
				JOINT RightLeg
				{
					OFFSET 16.047001 -41.939499 3.282077
					CHANNELS 3 Xrotation Yrotation Zrotation
					JOINT RightFoot
					{
						OFFSET -10.782497 -39.712399 1.496513
						CHANNELS 3 Xrotation Yrotation Zrotation
						JOINT RightToe
						{
							OFFSET 16.211903 -7.174790 3.136249
							CHANNELS 3 Xrotation Yrotation Zrotation
							End Site
							{
								OFFSET 0.000000 0.100000 0.000000
							}
						}
					}
				}
			}
			JOINT LeftUpLeg
			{
				OFFSET -6.058500 -0.243279 -7.388800
				CHANNELS 3 Xrotation Yrotation Zrotation
				JOINT LeftLeg
				{
					OFFSET 3.666054 -39.140800 -21.948999
					CHANNELS 3 Xrotation Yrotation Zrotation
					JOINT LeftFoot
					{
						OFFSET -12.819502 -39.020802 -2.933899
						CHANNELS 3 Xrotation Yrotation Zrotation
						JOINT LeftToe
						{
							OFFSET 6.328577 -11.133300 -12.654602
							CHANNELS 3 Xrotation Yrotation Zrotation
							End Site
							{
								OFFSET 0.000000 0.100000 0.000000
							}
						}
					}
				}
			}
		}
	}
}
MOTION
Frames: 13
Frame Time: 0.041667
52.528111 0.000000 25.904984 -0.000000 0.000000 -0.000000 -1.696265 -12.075696 1.318277 0.141438 -0.043627 -0.114524 -0.690298 2.074070 0.734938 -0.528286 2.970800 0.904390 -0.039200 2.077085 0.517747 0.452546 0.705406 -0.845165 0.937845 1.434848 -1.372711 -0.504066 -1.966994 -0.083612 1.607922 1.307357 -3.906142 0.224595 0.522754 0.355211 -0.460988 -0.197837 0.539543 -0.389406 -1.062056 0.150607 0.321966 -0.287075 0.632118 -0.138355 0.183096 -0.759537 0.225507 -0.347672 0.005403 7.951734 3.320949 -19.974642 0.684928 -0.746418 -12.286032 14.942063 -2.219551 -23.990039 -30.947488 -5.015951 45.786299 -23.968264 0.890551 27.787737 10.321833 -3.158666 9.047865 8.385544 0.505047 -9.528574 -5.356337 0.535306 -20.737998 
55.767212 0.000000 26.891180 -0.000000 0.000000 -0.000000 -1.307346 -11.718630 1.118904 0.018159 -0.005704 -0.014700 -0.722203 1.965417 0.775394 -0.575071 2.881734 0.959013 -0.077920 2.023542 0.558739 0.409898 0.623496 -0.855186 0.890432 1.270767 -1.401413 -0.510317 -1.975718 -0.079142 1.362603 0.878772 -3.966171 0.246793 0.574913 0.390502 -0.449424 -0.190823 0.538216 -0.365845 -1.056036 0.128833 0.096351 -0.229024 0.664358 -0.133262 0.176265 -0.731370 0.215524 -0.305597 -0.017389 7.333989 3.787195 -19.709402 0.728609 -0.806668 -13.186402 17.124372 -3.166676 -32.282076 -35.016956 -8.609867 45.379504 -24.070592 0.467486 26.580047 9.976942 -3.081658 8.743627 10.377847 -0.085441 -9.726667 -5.263704 0.490921 -20.903259 
58.444511 0.000000 27.384981 -0.000000 0.000000 -0.000000 -1.254207 -11.227993 1.070135 -0.009709 0.002984 0.007862 -0.679002 1.842765 0.746812 -0.537088 2.714928 0.924094 -0.069959 1.906586 0.540741 0.364530 0.528466 -0.895043 0.855068 1.082785 -1.485642 -0.511116 -1.996869 -0.085411 1.052855 0.491805 -3.916308 0.285399 0.665811 0.451924 -0.453007 -0.172797 0.531524 -0.327055 -1.051772 0.091760 -0.206265 -0.284712 0.721570 -0.116325 0.153597 -0.637678 0.211681 -0.299224 -0.015764 6.385883 3.725130 -18.381601 0.835279 -0.962691 -15.473519 20.457863 -4.181707 -41.168504 -38.563798 -13.409775 38.991098 -23.855902 0.185456 25.334439 9.581280 -2.990948 8.394743 11.882962 -0.556206 -10.116384 -5.161042 0.441345 -21.086606 
62.063610 0.000000 29.276981 -0.000000 0.000000 -0.000000 -1.504831 -10.617818 1.253211 0.173943 -0.054263 -0.140819 -0.570493 1.717330 0.569128 -0.445854 2.433412 0.699798 -0.042812 1.701489 0.397698 0.213683 0.467144 -0.892259 0.594910 0.922202 -1.541324 -0.483312 -2.003516 -0.120764 0.628609 0.103902 -3.344874 0.237224 0.552423 0.375292 -0.303820 -0.178771 0.433076 -0.239302 -1.187112 -0.023363 -0.865140 -0.588592 0.898003 -0.036933 0.048385 -0.201473 0.174308 -0.341739 0.003597 3.064947 1.585910 -12.818071 1.142330 -1.506918 -23.038397 23.189433 -6.206281 -48.749055 -34.973963 -18.350849 21.957752 -23.183803 0.986554 23.664722 8.146796 -2.640690 7.131001 13.994904 -1.620040 -9.060566 -4.929089 0.327823 -21.501528 
63.701317 0.000000 30.379675 -0.000000 0.000000 -0.000000 -1.550744 -10.348551 1.310684 0.166934 -0.052064 -0.135149 -0.472340 1.568238 0.468221 -0.343841 2.205922 0.566145 -0.000380 1.534416 0.313797 0.108321 0.489903 -0.923495 0.409756 0.930038 -1.644980 -0.483104 -1.887342 -0.081393 0.579903 0.028426 -3.114247 0.210106 0.488802 0.332237 -0.294949 -0.213071 0.422608 -0.205785 -1.112950 -0.040327 -1.281469 -0.842690 0.937449 0.003763 -0.004910 0.020432 0.196032 -0.430677 -0.000135 1.300783 0.993590 -9.585778 1.274404 -1.808315 -27.019520 19.677089 -4.766323 -40.060156 -26.794607 -12.104744 22.467598 -22.984259 1.619783 22.964991 7.593823 -2.496679 6.644382 14.795928 -2.156307 -8.219145 -4.801614 0.264549 -21.729994 
65.325409 0.000000 31.344675 -0.000000 0.000000 -0.000000 -1.783074 -10.104538 1.377419 0.160027 -0.049394 -0.129570 -0.286434 1.437890 0.358361 -0.118118 1.986609 0.413810 0.125802 1.360060 0.214908 0.043285 0.493291 -0.907707 0.281296 0.919208 -1.650458 -0.443629 -1.693867 -0.062212 0.304184 -0.167029 -2.847725 0.251254 0.585417 0.397601 -0.323491 -0.175225 0.419852 -0.148753 -0.952521 -0.062092 -1.760238 -1.121136 0.995023 0.027613 -0.035943 0.150054 0.210956 -0.543709 0.008198 -0.194084 1.513012 -6.168616 1.362401 -2.048453 -30.113706 15.077844 -4.323266 -31.930957 -18.142902 -6.150085 21.048377 -22.576415 2.302738 22.296569 7.061623 -2.353308 6.176371 15.557006 -2.632135 -7.311684 -4.731218 0.219683 -21.936119 
68.798706 0.000000 33.452377 -0.000000 0.000000 -0.000000 -2.273374 -9.437316 1.419233 0.146064 -0.046707 -0.118266 0.116336 1.230195 0.119267 0.384542 1.612915 0.076990 0.418589 1.049268 -0.008274 0.022540 0.423617 -0.709900 0.172038 0.796908 -1.316467 -0.350913 -1.306782 -0.039310 -0.429565 -0.667671 -1.926982 0.270718 0.631240 0.428568 -0.274647 -0.113290 0.355635 -0.088223 -0.665454 -0.059502 -2.462809 -1.429972 1.030379 0.052155 -0.067738 0.283038 0.229829 -0.538973 -0.010706 -3.535290 2.285454 0.462473 1.384228 -2.115031 -30.961176 7.850421 -6.393851 -20.533323 -2.484211 2.196149 16.180100 -21.920521 3.911151 21.161953 6.369074 -2.159741 5.567798 16.715763 -3.912330 -5.548560 -3.527971 -0.246944 -22.928187 
70.670006 0.000000 34.368076 -0.000000 0.000000 -0.000000 -2.480882 -8.970511 1.493179 0.139043 -0.044003 -0.112572 0.294258 1.151518 -0.038826 0.606073 1.462160 -0.145351 0.547296 0.919656 -0.157413 0.023039 0.352734 -0.539393 0.118591 0.672704 -1.013496 -0.293258 -1.130482 -0.047078 -0.638885 -1.064700 -1.327990 0.251472 0.585888 0.397927 -0.263899 -0.082049 0.323729 -0.137623 -0.574190 0.009121 -2.543472 -1.445424 0.899432 0.071232 -0.092333 0.386066 0.227369 -0.502730 0.007669 -5.135040 1.785084 2.922760 1.297231 -1.866888 -27.779983 6.693758 -7.295114 -17.951800 2.182618 3.715242 14.569564 -21.532791 4.619349 20.632658 5.961333 -2.042034 5.209741 17.493540 -4.598031 -4.912629 -4.080725 -0.060628 -22.422973 
72.314110 0.000000 35.441677 -0.000000 0.000000 -0.000000 -2.670935 -8.565050 1.542650 0.132084 -0.041041 -0.106938 0.450004 1.105762 -0.188493 0.803743 1.361310 -0.357562 0.665160 0.826400 -0.301061 -0.005107 0.279812 -0.385349 0.022829 0.533894 -0.750590 -0.211419 -0.951434 -0.082564 -0.785011 -1.434507 -0.674282 0.221244 0.514937 0.349932 -0.244210 -0.057321 0.301849 -0.193575 -0.485863 0.083643 -2.504784 -1.323882 0.717770 0.082830 -0.107235 0.448625 0.218756 -0.444961 0.025865 -6.345670 1.085415 4.626598 1.108545 -1.438001 -22.109899 6.352448 -7.526019 -16.825993 5.668272 4.077247 12.289251 -20.977155 5.294563 20.196799 5.366708 -1.865441 4.687944 18.320944 -5.270622 -4.223678 -4.283974 -0.016880 -22.508467 
75.823105 0.000000 37.322369 -0.000000 0.000000 -0.000000 -2.863281 -8.155476 1.454575 0.118172 -0.036720 -0.095677 0.652818 1.132113 -0.359519 1.079296 1.351478 -0.608767 0.843619 0.785738 -0.475150 -0.128854 0.153272 -0.256858 -0.219483 0.265667 -0.570533 -0.091259 -0.631598 -0.114420 -0.896578 -1.876507 0.318408 0.174432 0.405232 0.275627 -0.264943 -0.053446 0.330896 -0.304857 -0.334621 0.226419 -2.191859 -0.775675 0.090357 0.071846 -0.093139 0.389471 0.174713 -0.315587 0.030531 -7.509076 0.116622 5.496292 0.240729 -0.227007 -4.006933 6.889295 -6.387572 -17.096956 2.352819 0.592311 2.544737 -19.542389 6.452767 19.563941 3.733633 -1.349844 3.257110 20.113961 -6.329921 -2.652805 -3.787582 -0.261661 -23.570324 
77.572510 0.000000 38.266369 -0.000000 0.000000 -0.000000 -2.782292 -8.105216 1.314161 0.111185 -0.033567 -0.090011 0.677275 1.192804 -0.359977 1.125242 1.432962 -0.616942 0.882379 0.835778 -0.483862 -0.178949 0.108791 -0.264479 -0.296244 0.168580 -0.602689 -0.051819 -0.520558 -0.122590 -1.023168 -1.942005 0.590503 0.176868 0.410932 0.279499 -0.266832 -0.028747 0.322129 -0.367569 -0.335050 0.288051 -1.954099 -0.477206 -0.346380 0.051337 -0.066683 0.278637 0.147435 -0.224722 0.018967 -7.743800 0.313086 4.512011 -0.485459 0.373921 7.426615 7.425025 -5.465963 -17.412090 -0.558614 -0.070380 -0.699731 -18.829833 6.963935 19.331418 2.773001 -1.025442 2.417107 21.096890 -6.759917 -1.805162 -3.646593 -0.338185 -23.815102 
79.410408 0.000000 39.284668 -0.000000 0.000000 -0.000000 -2.595993 -8.051466 1.144312 0.104263 -0.030638 -0.084411 0.660824 1.259988 -0.320984 1.118373 1.534228 -0.569053 0.888976 0.905815 -0.454404 -0.213969 0.080794 -0.279047 -0.347948 0.105663 -0.640363 0.006056 -0.433836 -0.161577 -1.253054 -1.934591 0.802469 0.187301 0.435367 0.296057 -0.215305 0.028773 0.262734 -0.429861 -0.391847 0.336394 -1.675049 -0.216456 -0.786312 0.024812 -0.032311 0.134905 0.112814 -0.089053 0.009743 -8.003668 1.003398 2.642243 -1.365571 0.838882 19.510956 8.065356 -4.753006 -17.675280 0.000001 0.000003 0.000001 -18.084317 7.419460 19.108315 1.691796 -0.641444 1.473264 22.109213 -7.160750 -0.867490 -3.502139 -0.417364 -24.077844 
82.911407 0.000000 41.284370 -0.000000 0.000000 -0.000000 -2.142286 -7.575012 0.916323 0.090453 -0.027847 -0.073243 0.623602 1.284318 -0.205188 1.079413 1.589443 -0.411297 0.872359 0.950963 -0.348382 -0.293333 0.064082 -0.278785 -0.485462 0.046496 -0.666325 0.068727 -0.242793 -0.169284 -1.252780 -1.716577 0.880405 0.154227 0.358015 0.243599 -0.161089 0.057977 0.196884 -0.516955 -0.444406 0.410299 -1.038463 0.058929 -1.423171 -0.017558 0.022964 -0.095693 -0.059193 0.181665 0.064311 -8.080287 0.672574 -0.425087 -2.660770 1.154509 35.727941 9.088955 -4.186597 -17.941500 0.000001 0.000000 0.000001 -16.127970 8.198445 18.388952 -0.815125 0.326905 -0.708155 24.056882 -7.968062 1.465531 -3.225346 -0.571496 -24.582568 
